<svg viewBox="0 0 370 308" fill="none" xmlns="http://www.w3.org/2000/svg">
<rect width="370" height="308" rx="16"/>
<g clip-path="url(#clip0_1321_1278)">
<path d="M119.257 132.231C119.601 132.58 120.156 132.58 120.5 132.231L125.518 127.147L130.503 132.199C130.848 132.548 131.403 132.548 131.747 132.199C132.091 131.85 132.091 131.288 131.747 130.939L126.143 125.26C125.799 124.911 125.244 124.911 124.899 125.26L119.26 130.975C118.916 131.323 118.916 131.886 119.26 132.235L119.257 132.231Z" fill="#E6ECFD"/>
<path d="M130.377 150.74C130.538 150.9 130.756 151 130.999 151C131.483 151 131.877 150.601 131.877 150.11L131.877 138.662C131.877 138.171 131.483 137.772 130.999 137.772L126.392 137.772L126.392 125.89C126.392 125.399 125.999 125 125.514 125C125.029 125 124.636 125.399 124.636 125.89L124.636 138.662C124.636 139.154 125.029 139.552 125.514 139.552L130.12 139.552L130.12 150.11C130.12 150.356 130.219 150.58 130.377 150.74Z" fill="#E6ECFD"/>
</g>
<g clip-path="url(#clip1_1321_1278)">
<path d="M110 103.132C110 94.2222 116.715 87 124.999 87C133.283 87 139.998 94.2222 139.998 103.132C139.998 110.641 129.345 116.95 125.995 118.751C125.373 119.084 124.625 119.084 124.003 118.751C120.654 116.95 110 110.639 110 103.132Z" fill="#4471F6"/>
<path d="M124.999 110.284C130.217 110.284 134.447 106.039 134.447 100.803C134.447 95.5677 130.217 91.3232 124.999 91.3232C119.781 91.3232 115.551 95.5677 115.551 100.803C115.551 106.039 119.781 110.284 124.999 110.284Z" fill="white"/>
</g>
<g clip-path="url(#clip2_1321_1278)">
<path d="M246.671 153.55C246.671 148.598 242.629 144.583 237.643 144.583C232.656 144.583 228.614 148.598 228.614 153.55V233.506C228.614 238.458 232.656 242.473 237.643 242.473C242.629 242.473 246.671 238.458 246.671 233.506V153.55Z" fill="#E6ECFD"/>
<path d="M141.38 153.55C141.38 148.598 137.338 144.583 132.352 144.583C127.366 144.583 123.324 148.598 123.324 153.55V233.506C123.324 238.458 127.366 242.473 132.352 242.473C137.338 242.473 141.38 238.458 141.38 233.506V153.55Z" fill="#E6ECFD"/>
<path d="M328.433 144C323.85 144 319.775 146.932 318.384 151.269C300.368 207.375 247.463 248.015 185 248.015C122.537 248.015 69.6326 207.375 51.6159 151.269C50.2252 146.932 46.1499 144 41.5674 144C34.3971 144 29.3301 150.94 31.5131 157.722C52.2714 222.263 113.133 269 185 269C256.868 269 317.729 222.263 338.487 157.722C340.67 150.94 335.603 144 328.433 144Z" fill="#E6ECFD"/>
<path d="M99.4704 200.983C121.106 223.185 151.429 236.993 185 236.993C216.485 236.993 245.109 224.85 266.397 205.025C269.954 201.713 275.597 202.127 278.623 205.919L281.57 209.616C283.058 208.212 284.517 206.774 285.936 205.308L278.623 196.132C275.597 192.333 269.954 191.926 266.397 195.237C245.109 215.062 216.485 227.205 185 227.205C151.429 227.205 121.106 213.398 99.4704 191.195C96.4952 188.138 91.6733 187.81 88.3161 190.448L77.9712 198.577C79.6355 200.536 81.3568 202.449 83.1294 204.312L88.3218 200.23C91.679 197.592 96.4952 197.92 99.4761 200.977L99.4704 200.983Z" fill="#E6ECFD"/>
<path d="M185 248.015C222.447 248.015 256.446 233.404 281.564 209.622L278.618 205.926C275.591 202.127 269.948 201.719 266.392 205.031C245.103 224.856 216.48 236.999 184.994 236.999C151.423 236.999 121.101 223.192 99.4649 200.989C96.4896 197.932 91.6677 197.604 88.3106 200.242L83.1182 204.323C108.641 231.224 144.84 248.021 184.994 248.021L185 248.015Z" fill="#4471F6"/>
<path d="M149.491 238.878L154.609 248.015C154.609 248.015 166.453 251.683 181.95 251.683C197.448 251.683 207.679 248.015 207.679 248.015L213.743 238.125L149.491 238.878Z" fill="#4471F6"/>
</g>
<path d="M19.9531 42V30.6875H27.5469V32.625H22.2969V35.375H27.1562V37.3125H22.2969V40.0625H27.5625V42H19.9531ZM31.1856 42H28.6544L32.5763 30.6875H35.5919L39.4981 42H36.9825L36.1388 39.3906H32.045L31.1856 42ZM32.6388 37.5625H35.545L34.1231 33.2344H34.045L32.6388 37.5625ZM46.5744 33.9219C46.4806 33.0312 45.7619 32.5 44.6213 32.5C43.4338 32.5 42.7775 33.0469 42.7619 33.7969C42.7463 34.6094 43.6056 34.9844 44.5744 35.2031L45.59 35.4531C47.5275 35.8906 48.9806 36.875 48.9806 38.7656C48.9806 40.8438 47.3556 42.1562 44.6056 42.1562C41.8713 42.1562 40.1213 40.8906 40.0588 38.4688H42.34C42.4181 39.6094 43.3244 40.1875 44.5744 40.1875C45.8088 40.1875 46.6056 39.6094 46.6056 38.7656C46.6056 38 45.9025 37.6406 44.6681 37.3281L43.4338 37.0312C41.5275 36.5625 40.3556 35.6094 40.3556 33.9531C40.3556 31.8906 42.1681 30.5312 44.6369 30.5312C47.1369 30.5312 48.7931 31.9219 48.8244 33.9219H46.5744ZM49.9944 32.625V30.6875H59.26V32.625H55.7913V42H53.4631V32.625H49.9944Z" fill="#D9D9D9"/>
<path d="M307.959 42L304.724 30.6875H307.287L309.193 38.5938H309.287L311.365 30.6875H313.568L315.646 38.6094H315.74L317.646 30.6875H320.209L316.974 42H314.678L312.521 34.5312H312.428L310.256 42H307.959ZM321.332 42V30.6875H328.926V32.625H323.676V35.375H328.535V37.3125H323.676V40.0625H328.941V42H321.332ZM336.814 33.9219C336.721 33.0312 336.002 32.5 334.861 32.5C333.674 32.5 333.018 33.0469 333.002 33.7969C332.986 34.6094 333.846 34.9844 334.814 35.2031L335.83 35.4531C337.768 35.8906 339.221 36.875 339.221 38.7656C339.221 40.8438 337.596 42.1562 334.846 42.1562C332.111 42.1562 330.361 40.8906 330.299 38.4688H332.58C332.658 39.6094 333.564 40.1875 334.814 40.1875C336.049 40.1875 336.846 39.6094 336.846 38.7656C336.846 38 336.143 37.6406 334.908 37.3281L333.674 37.0312C331.768 36.5625 330.596 35.6094 330.596 33.9531C330.596 31.8906 332.408 30.5312 334.877 30.5312C337.377 30.5312 339.033 31.9219 339.064 33.9219H336.814ZM340.234 32.625V30.6875H349.5V32.625H346.031V42H343.703V32.625H340.234Z" fill="#D9D9D9"/>
<path d="M108.596 82V74.9297H110.061V80.7891H113.107V82H108.596ZM116.358 82.1074C114.757 82.1074 113.761 81.0039 113.761 79.3633C113.761 77.7227 114.757 76.6289 116.358 76.6289C117.96 76.6289 118.966 77.7227 118.966 79.3633C118.966 81.0039 117.96 82.1074 116.358 82.1074ZM116.368 80.9844C117.11 80.9844 117.491 80.291 117.491 79.3633C117.491 78.4258 117.11 77.7324 116.368 77.7324C115.616 77.7324 115.225 78.4258 115.225 79.3633C115.225 80.291 115.616 80.9844 116.368 80.9844ZM123.222 79.7441V76.6973H124.668V82H123.281V81.043H123.222C122.978 81.6582 122.412 82.0684 121.611 82.0684C120.546 82.0684 119.824 81.3164 119.824 80.0762V76.6973H121.269V79.8223C121.269 80.4473 121.63 80.8477 122.197 80.8477C122.724 80.8477 123.222 80.4668 123.222 79.7441ZM127.186 78.9336V82H125.741V76.6973H127.118V77.625H127.176C127.42 77.0098 127.987 76.6289 128.768 76.6289C129.871 76.6289 130.604 77.3809 130.594 78.6211V82H129.159V78.875C129.159 78.2207 128.797 77.8301 128.202 77.8301C127.596 77.8301 127.186 78.2305 127.186 78.9336ZM134.05 84.0996C132.585 84.0996 131.687 83.4453 131.599 82.4395H133.025C133.103 82.8594 133.503 83.0547 134.079 83.0547C134.753 83.0547 135.202 82.7715 135.202 82.0293V81.0625H135.134C134.939 81.4922 134.47 81.9219 133.62 81.9219C132.419 81.9219 131.462 81.082 131.462 79.3145C131.462 77.5176 132.448 76.6289 133.62 76.6289C134.509 76.6289 134.939 77.1562 135.134 77.5859H135.193V76.6973H136.628V82.0586C136.628 83.4062 135.554 84.0996 134.05 84.0996ZM134.07 80.8379C134.792 80.8379 135.202 80.2715 135.202 79.334C135.202 78.3867 134.792 77.7812 134.07 77.7812C133.337 77.7812 132.946 78.416 132.946 79.334C132.946 80.252 133.337 80.8379 134.07 80.8379ZM140.104 82.1074C138.482 82.1074 137.486 81.0527 137.486 79.373C137.486 77.7324 138.492 76.6289 140.045 76.6289C141.441 76.6289 142.535 77.5078 142.535 79.3145V79.7246H138.912C138.912 80.5254 139.391 81.0234 140.133 81.0234C140.621 81.0234 140.973 80.8086 141.119 80.4863H142.496C142.291 81.4629 141.412 82.1074 140.104 82.1074ZM138.912 78.8164H141.168C141.168 78.1719 140.719 77.7129 140.074 77.7129C139.41 77.7129 138.937 78.2061 138.912 78.8164Z" fill="#366DFF"/>
<defs>
<clipPath id="clip0_1321_1278">
<rect width="26" height="13"  transform="matrix(-4.37114e-08 -1 -1 4.37114e-08 132 151)"/>
</clipPath>
<clipPath id="clip1_1321_1278">
<rect width="30" height="32"  transform="translate(110 87)"/>
</clipPath>
<clipPath id="clip2_1321_1278">
<rect width="308" height="125"  transform="translate(31 144)"/>
</clipPath>
</defs>
</svg>
