<svg class='wave'  viewBox="0 0 208 26" fill="none" xmlns="http://www.w3.org/2000/svg">
<g clip-path="url(#clip0_260_1996)">
<path d="M1.54578 16.02C0.692509 16.02 0 15.4705 0 14.7934V13.3165C0 12.6394 0.692509 12.0898 1.54578 12.0898C2.39905 12.0898 3.09156 12.6394 3.09156 13.3165V14.7934C3.09156 15.4705 2.39905 16.02 1.54578 16.02Z" fill="white"/>
<path d="M7.91443 16.442C7.06116 16.442 6.36865 15.8924 6.36865 15.2153V12.8405C6.36865 12.1634 7.06116 11.6139 7.91443 11.6139C8.7677 11.6139 9.46021 12.1634 9.46021 12.8405V15.2153C9.46021 15.8924 8.7677 16.442 7.91443 16.442Z" fill="white"/>
<path d="M14.2831 17.9188C13.4298 17.9188 12.7373 17.3693 12.7373 16.6922V11.2557C12.7373 10.5786 13.4298 10.0291 14.2831 10.0291C15.1364 10.0291 15.8289 10.5786 15.8289 11.2557V16.6922C15.8289 17.3693 15.1364 17.9188 14.2831 17.9188Z" fill="white"/>
<path d="M20.6454 16.4419C19.7921 16.4419 19.0996 15.8924 19.0996 15.2153V12.5755C19.0996 11.8984 19.7921 11.3489 20.6454 11.3489C21.4987 11.3489 22.1912 11.8984 22.1912 12.5755V15.2153C22.1912 15.8924 21.4987 16.4419 20.6454 16.4419Z" fill="white"/>
<path d="M27.014 20.1906C26.1608 20.1906 25.4683 19.641 25.4683 18.9639V9.09676C25.4683 8.41965 26.1608 7.87012 27.014 7.87012C27.8673 7.87012 28.5598 8.41965 28.5598 9.09676V18.9639C28.5598 19.641 27.8673 20.1906 27.014 20.1906Z" fill="white"/>
<path d="M33.3827 17.2368C32.5294 17.2368 31.8369 16.6873 31.8369 16.0102V11.8396C31.8369 11.1625 32.5294 10.6129 33.3827 10.6129C34.236 10.6129 34.9285 11.1625 34.9285 11.8396V16.0102C34.9285 16.6873 34.236 17.2368 33.3827 17.2368Z" fill="white"/>
<path d="M39.7513 17.2368C38.8981 17.2368 38.2056 16.6873 38.2056 16.0102V11.8396C38.2056 11.1625 38.8981 10.6129 39.7513 10.6129C40.6046 10.6129 41.2971 11.1625 41.2971 11.8396V16.0102C41.2971 16.6873 40.6046 17.2368 39.7513 17.2368Z" fill="white"/>
<path d="M46.1198 17.2368C45.2665 17.2368 44.574 16.6873 44.574 16.0102V11.8396C44.574 11.1625 45.2665 10.6129 46.1198 10.6129C46.973 10.6129 47.6655 11.1625 47.6655 11.8396V16.0102C47.6655 16.6873 46.973 17.2368 46.1198 17.2368Z" fill="white"/>
<path d="M52.4823 21.0885C51.629 21.0885 50.9365 20.539 50.9365 19.8619V8.25289C50.9365 7.57578 51.629 7.02625 52.4823 7.02625C53.3356 7.02625 54.0281 7.57578 54.0281 8.25289V19.8619C54.0281 20.539 53.3356 21.0885 52.4823 21.0885Z" fill="white"/>
<path d="M58.851 19.1897C57.9977 19.1897 57.3052 18.6402 57.3052 17.9631V9.78378C57.3052 9.10667 57.9977 8.55713 58.851 8.55713C59.7042 8.55713 60.3967 9.10667 60.3967 9.78378V17.9631C60.3967 18.6402 59.7042 19.1897 58.851 19.1897Z" fill="white"/>
<path d="M65.2196 26C64.3663 26 63.6738 25.4505 63.6738 24.7734V1.22665C63.6738 0.549538 64.3663 0 65.2196 0C66.0729 0 66.7654 0.549538 66.7654 1.22665V24.7734C66.7654 25.4505 66.0729 26 65.2196 26Z" fill="white"/>
<path d="M71.588 16.4419C70.7347 16.4419 70.0422 15.8924 70.0422 15.2153V11.4666C70.0422 10.7895 70.7347 10.24 71.588 10.24C72.4413 10.24 73.1338 10.7895 73.1338 11.4666V15.2153C73.1338 15.8924 72.4413 16.4419 71.588 16.4419Z" fill="white"/>
<path d="M77.9567 19.4694C77.1034 19.4694 76.4109 18.9198 76.4109 18.2427V7.46786C76.4109 6.79075 77.1034 6.24121 77.9567 6.24121C78.8099 6.24121 79.5024 6.79075 79.5024 7.46786V18.2378C79.5024 18.9149 78.8099 19.4645 77.9567 19.4645V19.4694Z" fill="white"/>
<path d="M154.361 16.02C153.508 16.02 152.816 15.4705 152.816 14.7934V13.3165C152.816 12.6394 153.508 12.0898 154.361 12.0898C155.215 12.0898 155.907 12.6394 155.907 13.3165V14.7934C155.907 15.4705 155.215 16.02 154.361 16.02Z" fill="white"/>
<path d="M147.999 16.442C147.146 16.442 146.453 15.8924 146.453 15.2153V12.8405C146.453 12.1634 147.146 11.6139 147.999 11.6139C148.852 11.6139 149.545 12.1634 149.545 12.8405V15.2153C149.545 15.8924 148.852 16.442 147.999 16.442Z" fill="white"/>
<path d="M141.63 17.9188C140.777 17.9188 140.085 17.3693 140.085 16.6922V11.2557C140.085 10.5786 140.777 10.0291 141.63 10.0291C142.484 10.0291 143.176 10.5786 143.176 11.2557V16.6922C143.176 17.3693 142.484 17.9188 141.63 17.9188Z" fill="white"/>
<path d="M135.262 16.4419C134.409 16.4419 133.716 15.8924 133.716 15.2153V12.5755C133.716 11.8984 134.409 11.3489 135.262 11.3489C136.115 11.3489 136.808 11.8984 136.808 12.5755V15.2153C136.808 15.8924 136.115 16.4419 135.262 16.4419Z" fill="white"/>
<path d="M128.893 20.1906C128.04 20.1906 127.347 19.641 127.347 18.9639V9.09676C127.347 8.41965 128.04 7.87012 128.893 7.87012C129.746 7.87012 130.439 8.41965 130.439 9.09676V18.9639C130.439 19.641 129.746 20.1906 128.893 20.1906Z" fill="white"/>
<path d="M122.525 17.2368C121.671 17.2368 120.979 16.6873 120.979 16.0102V11.8396C120.979 11.1625 121.671 10.6129 122.525 10.6129C123.378 10.6129 124.07 11.1625 124.07 11.8396V16.0102C124.07 16.6873 123.378 17.2368 122.525 17.2368Z" fill="white"/>
<path d="M116.162 17.2368C115.309 17.2368 114.616 16.6873 114.616 16.0102V11.8396C114.616 11.1625 115.309 10.6129 116.162 10.6129C117.016 10.6129 117.708 11.1625 117.708 11.8396V16.0102C117.708 16.6873 117.016 17.2368 116.162 17.2368Z" fill="white"/>
<path d="M109.794 17.2368C108.94 17.2368 108.248 16.6873 108.248 16.0102V11.8396C108.248 11.1625 108.94 10.6129 109.794 10.6129C110.647 10.6129 111.339 11.1625 111.339 11.8396V16.0102C111.339 16.6873 110.647 17.2368 109.794 17.2368Z" fill="white"/>
<path d="M206.454 16.02C205.601 16.02 204.908 15.4705 204.908 14.7934V13.3165C204.908 12.6394 205.601 12.0898 206.454 12.0898C207.307 12.0898 208 12.6394 208 13.3165V14.7934C208 15.4705 207.307 16.02 206.454 16.02Z" fill="white"/>
<path d="M200.086 16.442C199.232 16.442 198.54 15.8924 198.54 15.2153V12.8405C198.54 12.1634 199.232 11.6139 200.086 11.6139C200.939 11.6139 201.631 12.1634 201.631 12.8405V15.2153C201.631 15.8924 200.939 16.442 200.086 16.442Z" fill="white"/>
<path d="M193.717 17.9188C192.864 17.9188 192.171 17.3693 192.171 16.6922V11.2557C192.171 10.5786 192.864 10.0291 193.717 10.0291C194.57 10.0291 195.263 10.5786 195.263 11.2557V16.6922C195.263 17.3693 194.57 17.9188 193.717 17.9188Z" fill="white"/>
<path d="M187.349 16.4419C186.495 16.4419 185.803 15.8924 185.803 15.2153V12.5755C185.803 11.8984 186.495 11.3489 187.349 11.3489C188.202 11.3489 188.894 11.8984 188.894 12.5755V15.2153C188.894 15.8924 188.202 16.4419 187.349 16.4419Z" fill="white"/>
<path d="M180.986 20.1906C180.133 20.1906 179.44 19.641 179.44 18.9639V9.09676C179.44 8.41965 180.133 7.87012 180.986 7.87012C181.839 7.87012 182.532 8.41965 182.532 9.09676V18.9639C182.532 19.641 181.839 20.1906 180.986 20.1906Z" fill="white"/>
<path d="M174.617 17.2368C173.764 17.2368 173.072 16.6873 173.072 16.0102V11.8396C173.072 11.1625 173.764 10.6129 174.617 10.6129C175.471 10.6129 176.163 11.1625 176.163 11.8396V16.0102C176.163 16.6873 175.471 17.2368 174.617 17.2368Z" fill="white"/>
<path d="M168.249 17.2368C167.395 17.2368 166.703 16.6873 166.703 16.0102V11.8396C166.703 11.1625 167.395 10.6129 168.249 10.6129C169.102 10.6129 169.794 11.1625 169.794 11.8396V16.0102C169.794 16.6873 169.102 17.2368 168.249 17.2368Z" fill="white"/>
<path d="M161.88 17.2368C161.027 17.2368 160.334 16.6873 160.334 16.0102V11.8396C160.334 11.1625 161.027 10.6129 161.88 10.6129C162.734 10.6129 163.426 11.1625 163.426 11.8396V16.0102C163.426 16.6873 162.734 17.2368 161.88 17.2368Z" fill="white"/>
<path d="M103.425 21.0885C102.572 21.0885 101.879 20.539 101.879 19.8619V8.25289C101.879 7.57578 102.572 7.02625 103.425 7.02625C104.278 7.02625 104.971 7.57578 104.971 8.25289V19.8619C104.971 20.539 104.278 21.0885 103.425 21.0885Z" fill="white"/>
<path d="M97.0563 19.1897C96.203 19.1897 95.5105 18.6402 95.5105 17.9631V9.78378C95.5105 9.10667 96.203 8.55713 97.0563 8.55713C97.9095 8.55713 98.6021 9.10667 98.6021 9.78378V17.9631C98.6021 18.6402 97.9095 19.1897 97.0563 19.1897Z" fill="white"/>
<path d="M90.6876 26C89.8344 26 89.1418 25.4505 89.1418 24.7734V1.22665C89.1418 0.549538 89.8344 0 90.6876 0C91.5409 0 92.2334 0.549538 92.2334 1.22665V24.7734C92.2334 25.4505 91.5409 26 90.6876 26Z" fill="white"/>
<path d="M84.3253 16.4419C83.472 16.4419 82.7795 15.8924 82.7795 15.2153V11.4666C82.7795 10.7895 83.472 10.24 84.3253 10.24C85.1786 10.24 85.8711 10.7895 85.8711 11.4666V15.2153C85.8711 15.8924 85.1786 16.4419 84.3253 16.4419Z" fill="white"/>
</g>
<defs>
<clipPath id="clip0_260_1996">
<rect width="208" height="26" fill="white"/>
</clipPath>
</defs>
</svg>