<svg width="30" height="30" viewBox="0 0 30 30" fill="none" xmlns="http://www.w3.org/2000/svg">
<path fill-rule="evenodd" clip-rule="evenodd" d="M14.9999 2.49996C15.6902 2.49996 16.2499 2.96209 16.2499 3.53216V5.21777C16.2499 5.78783 15.6902 6.24996 14.9999 6.24996C14.3095 6.24996 13.7499 5.78783 13.7499 5.21777V3.53216C13.7499 2.96209 14.3095 2.49996 14.9999 2.49996Z"  />
<path fill-rule="evenodd" clip-rule="evenodd" d="M6.3456 14.3352C6.53808 9.39775 10.1048 5.25021 15.0051 5.25021C19.9046 5.25021 23.47 9.39589 23.6728 14.3304C23.6847 14.3921 23.6909 14.4557 23.6909 14.5208V18.4198L24.4508 20.2878C24.8359 20.9435 24.8231 21.7014 24.5594 22.2977C24.283 22.9225 23.6595 23.5002 22.781 23.5002L7.22028 23.49C7.22006 23.49 7.2205 23.49 7.22028 23.49C6.34049 23.4897 5.71408 22.9151 5.43741 22.285C5.17394 21.6849 5.16713 20.9265 5.55317 20.273L6.3284 18.4151V14.5208C6.3284 14.4574 6.3343 14.3954 6.3456 14.3352ZM8.3284 14.8907V18.6154C8.3284 18.7476 8.30219 18.8785 8.25128 19.0005L7.36828 21.1167C7.34431 21.1741 7.31502 21.2292 7.28081 21.2812C7.24619 21.3338 7.23813 21.4114 7.26867 21.481C7.27012 21.4843 7.27155 21.4873 7.27294 21.49L22.7248 21.5002C22.7266 21.4968 22.7284 21.493 22.7303 21.4887C22.7622 21.4165 22.7528 21.3406 22.7205 21.2914C22.6846 21.2369 22.6542 21.179 22.6296 21.1186L21.7646 18.9922C21.7159 18.8725 21.6909 18.7446 21.6909 18.6154V14.8907C21.685 14.8472 21.682 14.8029 21.6819 14.7579C21.6737 10.5119 18.724 7.25021 15.0051 7.25021C11.2861 7.25021 8.33741 10.5117 8.33741 14.7559C8.33741 14.8016 8.33434 14.8466 8.3284 14.8907ZM7.22028 21.49C7.22006 21.49 7.2205 21.49 7.22028 21.49V21.49Z"  />
<path fill-rule="evenodd" clip-rule="evenodd" d="M11.25 21.5002C11.8023 21.5002 12.25 21.9479 12.25 22.5002C12.25 24.0215 13.4788 25.2502 15 25.2502C16.5212 25.2502 17.75 24.0215 17.75 22.5002C17.75 21.9479 18.1977 21.5002 18.75 21.5002C19.3023 21.5002 19.75 21.9479 19.75 22.5002C19.75 25.126 17.6258 27.2502 15 27.2502C12.3742 27.2502 10.25 25.126 10.25 22.5002C10.25 21.9479 10.6977 21.5002 11.25 21.5002Z"  />
</svg>
