<svg width="36" height="44" viewBox="0 0 36 44" fill="none" xmlns="http://www.w3.org/2000/svg">
<path d="M33.4645 11.9057C32.8722 11.7695 32.5028 11.1795 32.6389 10.5872L33.7903 5.57808L28.816 4.4347C28.2237 4.29855 27.8543 3.70854 27.9904 3.11623C28.1265 2.52393 28.7166 2.15446 29.3089 2.29061L35.3552 3.68041C35.9475 3.81656 36.317 4.40657 36.1808 4.99887L34.783 11.08C34.6469 11.6723 34.0568 12.0418 33.4645 11.9057Z" fill="#FFDA01"/>
<path d="M19.8149 19.2989C19.5415 19.236 19.2895 19.068 19.1285 18.8109C18.8065 18.2967 18.9624 17.6187 19.4772 17.294L27.0551 12.5487L25.8166 10.571C25.4946 10.0568 25.6505 9.37876 26.1653 9.05408L34.5271 3.82024C35.0413 3.49825 35.722 3.65472 36.044 4.16892C36.366 4.68312 36.2101 5.36119 35.6953 5.68586L28.2658 10.3383L29.5042 12.316C29.8262 12.8302 29.6703 13.5082 29.1555 13.8329L20.6449 19.1623C20.3878 19.3233 20.0904 19.365 19.8143 19.3015L19.8149 19.2989Z" fill="#FFDA01"/>
<rect x="9.39258" y="12.1" width="14.3" height="14.3" rx="7.15" fill="#366DFF"/>
<path fill-rule="evenodd" clip-rule="evenodd" d="M14.0247 16.4907C13.9125 16.1326 13.5313 15.9334 13.1733 16.0456C12.8153 16.1577 12.616 16.5389 12.7282 16.897L13.2256 18.4842H12.8517C12.4765 18.4842 12.1724 18.7884 12.1724 19.1636C12.1724 19.5387 12.4765 19.8429 12.8517 19.8429H13.6514L14.2765 21.8376C14.3653 22.121 14.6278 22.3138 14.9248 22.3138C15.2217 22.3138 15.4842 22.121 15.573 21.8376L16.4731 18.9655L17.3732 21.8376C17.462 22.121 17.7245 22.3138 18.0214 22.3138C18.3184 22.3138 18.5809 22.121 18.6697 21.8376L19.2948 19.8429H20.2629C20.6381 19.8429 20.9422 19.5387 20.9422 19.1636C20.9422 18.7884 20.6381 18.4842 20.2629 18.4842H19.7206L20.218 16.897C20.3302 16.5389 20.1309 16.1577 19.7729 16.0456C19.4149 15.9334 19.0337 16.1326 18.9215 16.4907L18.0214 19.3627L17.1214 16.4907C17.0326 16.2073 16.77 16.0145 16.4731 16.0145C16.1762 16.0145 15.9136 16.2073 15.8248 16.4907L14.9248 19.3627L14.0247 16.4907Z" fill="white"/>
<rect x="9.39258" y="29.975" width="4.95" height="6.05" rx="2.475" fill="#366DFF"/>
<rect x="20.3926" y="26.95" width="4.95" height="9.075" rx="2.475" fill="#366DFF"/>
<rect x="31.3926" y="18.425" width="4.95" height="17.6" rx="2.475" fill="#366DFF"/>
</svg>
