<svg width="19" height="13" viewBox="0 0 19 13" fill="none" xmlns="http://www.w3.org/2000/svg">
<g clip-path="url(#clip0_1000_2251)">
<path d="M14.4196 10.9731C13.9514 10.9731 13.5714 10.6239 13.5714 10.1936V5.30103C13.5714 3.23675 11.7461 1.55913 9.5 1.55913C7.25393 1.55913 5.42857 3.23675 5.42857 5.30103V10.1936C5.42857 10.6239 5.04857 10.9731 4.58036 10.9731C4.11214 10.9731 3.73214 10.6239 3.73214 10.1936V5.30103C3.73214 2.37923 6.32089 0 9.5 0C12.6791 0 15.2679 2.37923 15.2679 5.30103V10.1936C15.2679 10.6239 14.8879 10.9731 14.4196 10.9731Z" fill="#366DFF"/>
<path d="M16.4587 12.6882H14.4196C13.9514 12.6882 13.5714 12.339 13.5714 11.9087V6.91946C13.5714 6.48914 13.9514 6.13989 14.4196 6.13989H16.4587C17.86 6.13989 19 7.18763 19 8.47546V10.3495C19 11.6374 17.86 12.6851 16.4587 12.6851V12.6882ZM15.2679 11.1291H16.4587C16.9236 11.1291 17.3036 10.7799 17.3036 10.3527V8.47858C17.3036 8.05138 16.9236 7.70214 16.4587 7.70214H15.2679V11.1322V11.1291Z" fill="#366DFF"/>
<path d="M4.58036 12.6883H2.54125C1.14 12.6883 0 11.6405 0 10.3527V8.47864C0 7.1908 1.14 6.14307 2.54125 6.14307H4.58036C5.04857 6.14307 5.42857 6.49231 5.42857 6.92263V11.9118C5.42857 12.3422 5.04857 12.6914 4.58036 12.6914V12.6883ZM2.54125 7.69908C2.07643 7.69908 1.69643 8.04832 1.69643 8.47552V10.3496C1.69643 10.7768 2.07643 11.126 2.54125 11.126H3.73214V7.69596H2.54125V7.69908Z" fill="#366DFF"/>
<path d="M14.4196 12.6883H12.2482C11.78 12.6883 11.4 12.339 11.4 11.9087C11.4 11.4784 11.78 11.1292 12.2482 11.1292H14.4196C14.8879 11.1292 15.2679 11.4784 15.2679 11.9087C15.2679 12.339 14.8879 12.6883 14.4196 12.6883Z" fill="#366DFF"/>
<path d="M9.5 12.9999C10.1558 12.9999 10.6875 12.5113 10.6875 11.9085C10.6875 11.3058 10.1558 10.8171 9.5 10.8171C8.84416 10.8171 8.3125 11.3058 8.3125 11.9085C8.3125 12.5113 8.84416 12.9999 9.5 12.9999Z" fill="#366DFF"/>
</g>
<defs>
<clipPath id="clip0_1000_2251">
<rect width="19" height="13" fill="white"/>
</clipPath>
</defs>
</svg>
