<svg viewBox="0 0 36 36" fill="none" xmlns="http://www.w3.org/2000/svg">
<mask id="mask0_1097_1327" style="mask-type:luminance" maskUnits="userSpaceOnUse" x="0" y="0" width="36" height="36">
<circle cx="18" cy="18" r="18" fill="white"/>
</mask>
<g mask="url(#mask0_1097_1327)">
<path d="M33.1869 0H2.8131C1.25947 0 0 1.25947 0 2.8131V33.1869C0 34.7405 1.25947 36 2.8131 36H33.1869C34.7405 36 36 34.7405 36 33.1869V2.8131C36 1.25947 34.7405 0 33.1869 0Z" fill="#FFE300"/>
<path d="M24.0971 17.7848C25.0839 17.1366 25.8352 16.1873 26.2394 15.078C26.6435 13.9687 26.679 12.7585 26.3405 11.6275C26.002 10.4964 25.3076 9.50471 24.3605 8.79981C23.4133 8.0949 22.2641 7.7144 21.0834 7.71484H11.8883C11.8041 7.71484 11.7233 7.74829 11.6638 7.80783C11.6043 7.86737 11.5708 7.94812 11.5708 8.03232V27.5349C11.5706 27.5767 11.5787 27.6181 11.5946 27.6568C11.6105 27.6954 11.6339 27.7306 11.6634 27.7602C11.6929 27.7898 11.7279 27.8133 11.7665 27.8293C11.8051 27.8453 11.8465 27.8536 11.8883 27.8536H21.0834C22.2637 27.8537 23.4126 27.473 24.3593 26.7682C25.3061 26.0633 26.0002 25.0719 26.3387 23.9411C26.6771 22.8104 26.6418 21.6006 26.238 20.4916C25.8342 19.3825 25.0834 18.4332 24.0971 17.7848ZM19.5842 22.3706H17.8569V13.2025H19.5795L19.5842 22.3706Z" fill="#1E1E1E"/>
</g>
</svg>
