<svg width="11" height="17" viewBox="0 0 11 17" fill="none" xmlns="http://www.w3.org/2000/svg">
<g clip-path="url(#clip0_1000_2272)">
<path d="M5.4732 11.4565C3.35086 11.4565 1.62354 9.54957 1.62354 7.20652V4.25C1.62354 1.90696 3.35086 0 5.4732 0C7.59554 0 9.32287 1.90696 9.32287 4.25V7.20652C9.32287 9.54957 7.59554 11.4565 5.4732 11.4565ZM5.4732 1.84783C4.27478 1.84783 3.2973 2.92696 3.2973 4.25V7.20652C3.2973 8.52956 4.27478 9.6087 5.4732 9.6087C6.67162 9.6087 7.6491 8.52956 7.6491 7.20652V4.25C7.6491 2.92696 6.67162 1.84783 5.4732 1.84783Z" fill="#366DFF"/>
<path d="M5.4732 14.4129C3.3676 14.4129 1.37917 13.2821 0.15397 11.3825C-0.113833 10.9686 -0.0267972 10.3884 0.351474 10.0927C0.726398 9.79706 1.24861 9.89315 1.51976 10.3108C2.43029 11.7225 3.9099 12.5651 5.47655 12.5651C5.93851 12.5651 6.31343 12.979 6.31343 13.489C6.31343 13.999 5.93851 14.4129 5.47655 14.4129H5.4732Z" fill="#366DFF"/>
<path d="M5.52341 14.4131C5.06145 14.4131 4.68652 13.9992 4.68652 13.4892C4.68652 12.9792 5.06145 12.5653 5.52341 12.5653C7.09005 12.5653 8.56966 11.7227 9.48019 10.311C9.748 9.89704 10.2702 9.79725 10.6485 10.0929C11.0234 10.3886 11.1138 10.9651 10.846 11.3827C9.62079 13.2786 7.63235 14.4131 5.52675 14.4131H5.52341Z" fill="#366DFF"/>
<path d="M5.47324 17C5.01128 17 4.63635 16.5861 4.63635 16.0761V13.8587C4.63635 13.3487 5.01128 12.9348 5.47324 12.9348C5.9352 12.9348 6.31012 13.3487 6.31012 13.8587V16.0761C6.31012 16.5861 5.9352 17 5.47324 17Z" fill="#366DFF"/>
</g>
<defs>
<clipPath id="clip0_1000_2272">
<rect width="11" height="17" fill="white"/>
</clipPath>
</defs>
</svg>
