<svg width="31" height="28" viewBox="0 0 31 28" fill="none" xmlns="http://www.w3.org/2000/svg">
<path fill-rule="evenodd" clip-rule="evenodd" d="M7.47751 4.55054L6.22931 1.44037C5.95317 0.751496 6.44409 0 7.18047 0H17.4285C18.1546 0 18.6455 0.751496 18.3796 1.44037L17.1308 4.55214C21.7207 5.8957 24.6028 10.0874 24.6028 15.043V24.0794C24.6028 25.7306 23.1827 27.0635 21.4234 27.0635H3.17944C1.42015 27.0635 0 25.7306 0 24.0794V15.043C0 10.0854 2.88443 5.89238 7.47751 4.55054Z" fill="#4C7DFF"/>
<path fill-rule="evenodd" clip-rule="evenodd" d="M8.93998 12.8521C8.791 12.3767 8.28483 12.1121 7.80942 12.2611C7.33401 12.4101 7.0694 12.9162 7.21838 13.3917L7.87889 15.4994H7.38255C6.88434 15.4994 6.48047 15.9033 6.48047 16.4015C6.48047 16.8997 6.88434 17.3036 7.38255 17.3036H8.44429L9.27435 19.9524C9.39226 20.3287 9.74087 20.5848 10.1352 20.5848C10.5294 20.5848 10.878 20.3287 10.996 19.9524L12.1911 16.1385L13.3863 19.9524C13.5042 20.3287 13.8528 20.5848 14.2471 20.5848C14.6414 20.5848 14.99 20.3287 15.1079 19.9524L15.938 17.3036H17.2237C17.7219 17.3036 18.1258 16.8997 18.1258 16.4015C18.1258 15.9033 17.7219 15.4994 17.2237 15.4994H16.5034L17.1639 13.3917C17.3129 12.9162 17.0482 12.4101 16.5728 12.2611C16.0974 12.1121 15.5913 12.3767 15.4423 12.8521L14.2471 16.666L13.0519 12.8521C12.934 12.4759 12.5854 12.2198 12.1911 12.2198C11.7968 12.2198 11.4482 12.4759 11.3303 12.8521L10.1352 16.666L8.93998 12.8521Z" fill="white"/>
<circle cx="25.4644" cy="8.48811" r="5.53571" fill="#FFE300"/>
<circle cx="25.4643" cy="8.48808" r="4.05952" fill="#FFBF00"/>
<mask id="mask0_1312_628" style="mask-type:alpha" maskUnits="userSpaceOnUse" x="21" y="4" width="9" height="9">
<circle cx="25.4643" cy="8.48808" r="4.05952" fill="#FFD000"/>
</mask>
<g mask="url(#mask0_1312_628)">
<rect x="28.5962" y="2.95239" width="0.534749" height="12.5476" transform="rotate(39.1947 28.5962 2.95239)" fill="#FFF079"/>
<rect x="30.0723" y="3.69049" width="0.848872" height="12.5476" transform="rotate(39.1947 30.0723 3.69049)" fill="#FFF079"/>
</g>
</svg>
