<svg width="64" height="47" viewBox="0 0 64 47" fill="none" xmlns="http://www.w3.org/2000/svg">
<path fill-rule="evenodd" clip-rule="evenodd" d="M23.9004 3.5C21.6913 3.5 19.9004 5.29086 19.9004 7.5V22.5C19.9004 24.7091 21.6913 26.5 23.9004 26.5H38.9004C41.1095 26.5 42.9004 24.7091 42.9004 22.5V7.5C42.9004 5.29086 41.1095 3.5 38.9004 3.5H23.9004ZM25.8385 10.6739C25.3823 10.1558 24.5924 10.1056 24.0743 10.5619C23.5562 11.0181 23.506 11.808 23.9623 12.3261L28.8933 17.9261C29.1133 18.176 29.4239 18.3277 29.7563 18.3477C30.0886 18.3678 30.4152 18.2543 30.6637 18.0327L32.8968 16.0401L36.9934 20.3601C37.4684 20.8611 38.2596 20.8821 38.7605 20.407C39.2614 19.932 39.2824 19.1408 38.8074 18.6399L33.8764 13.4399C33.4115 12.9496 32.6412 12.9175 32.1371 13.3673L29.938 15.3296L25.8385 10.6739Z" fill="#B9C1C9"/>
<path d="M31.5996 39.1055V40.2012H27.7969V43.4883H26.4434V40.2012H22.6836V39.1055H31.5996ZM30.8047 34.2285V35.3027H27.958C28.0923 36.2588 29.1719 37.2202 31.1807 37.4619L30.6865 38.5361C28.9678 38.3052 27.7378 37.5693 27.1523 36.5596C26.5508 37.5693 25.3315 38.3052 23.6289 38.5361L23.124 37.4619C25.1006 37.2202 26.1909 36.2588 26.3467 35.3027H23.4893V34.2285H30.8047ZM35.9395 35.0986C35.9287 36.3232 36.627 37.5049 38.2383 37.9883L37.5508 39.0625C36.439 38.708 35.6709 38.0151 35.2305 37.1182C34.79 38.085 33.9951 38.8423 32.8457 39.2129L32.1582 38.1387C33.791 37.6123 34.5107 36.3447 34.5107 35.0986V34.1641H35.9395V35.0986ZM40.376 39.9648V43.4883H39.001V41.0605H33.6514V39.9648H40.376ZM40.376 33.7129V39.5459H39.001V33.7129H40.376Z" fill="#808892"/>
</svg>
