<svg width="65" height="47" viewBox="0 0 65 47" fill="none" xmlns="http://www.w3.org/2000/svg">
<path fill-rule="evenodd" clip-rule="evenodd" d="M43.3215 15.017L32.9715 4.667C32.5575 4.253 31.9825 4 31.35 4H23.3C22.035 4 21 5.035 21 6.3V14.35C21 14.9825 21.253 15.5575 21.6785 15.983L32.0285 26.333C32.4425 26.747 33.0175 27 33.65 27C34.2825 27 34.8575 26.747 35.2715 26.3215L43.3215 18.2715C43.747 17.8575 44 17.2825 44 16.65C44 16.0175 43.7355 15.431 43.3215 15.017ZM25.0253 9.7498C24.0708 9.7498 23.3003 8.9793 23.3003 8.0248C23.3003 7.0703 24.0708 6.2998 25.0253 6.2998C25.9798 6.2998 26.7503 7.0703 26.7503 8.0248C26.7503 8.9793 25.9798 9.7498 25.0253 9.7498ZM33.6501 24.1714L38.5606 19.2609C39.0781 18.7434 39.4001 18.0189 39.4001 17.2254C39.4001 15.6384 38.1121 14.3504 36.5251 14.3504C35.7316 14.3504 35.0071 14.6724 34.4896 15.1899L33.6501 16.0294L32.8106 15.2014C32.2931 14.6724 31.5686 14.3504 30.7751 14.3504C29.1881 14.3504 27.9001 15.6384 27.9001 17.2254C27.9001 18.0189 28.2221 18.7319 28.7396 19.2609L33.6501 24.1714Z" fill="#B9C1C9"/>
<path d="M31.7588 33.7129V43.4883H30.4482V33.7129H31.7588ZM29.8252 33.874V43.0586H28.5469V40.2334H27.4404C27.0967 40.9746 26.4146 41.4365 25.5713 41.4365C24.3682 41.4365 23.4766 40.4697 23.4873 39.084C23.4766 37.6982 24.3682 36.7314 25.5713 36.7314C26.7959 36.7314 27.6768 37.6982 27.6768 39.084V39.1592H28.5469V37.9883H27.4727V36.8711H28.5469V33.874H29.8252ZM27.9238 35.1953V36.2803H23.2725V35.1953H24.9268V33.9492H26.291V35.1953H27.9238ZM25.5713 37.8916C25.0342 37.8916 24.6797 38.3105 24.6797 39.084C24.6797 39.8359 25.0342 40.2764 25.5713 40.2764C26.1191 40.2764 26.4844 39.8359 26.4951 39.084C26.4844 38.3105 26.1191 37.8916 25.5713 37.8916ZM37.001 34.3682V35.4639H34.4443V36.2695H36.9043V37.3115H34.4443V38.1709C35.5293 38.1655 36.335 38.1226 37.2373 37.9668L37.377 39.0625C36.2275 39.2666 35.2715 39.2988 33.7998 39.2988H33.1338V34.3682H37.001ZM41.1904 33.7236V39.6855H39.8906V37.2041H39.042V39.6104H37.7637V33.8955H39.042V36.1084H39.8906V33.7236H41.1904ZM41.1904 40.0938V43.4883H39.8262V41.1895H34.4336V40.0938H41.1904Z" fill="#808892"/>
</svg>
