<svg width="64" height="47" viewBox="0 0 64 47" fill="none" xmlns="http://www.w3.org/2000/svg">
<path fill-rule="evenodd" clip-rule="evenodd" d="M23.988 6.32501C22.4416 6.32501 21.188 7.57861 21.188 9.12501V11.3125C21.188 12.5828 22.2177 13.6125 23.488 13.6125H28.9255C30.1957 13.6125 31.2255 12.5828 31.2255 11.3125V9.12501C31.2255 7.57861 29.9719 6.32501 28.4255 6.32501H23.988ZM36.1755 6.32501C34.6291 6.32501 33.3755 7.57861 33.3755 9.12501V23.75C33.3755 25.2964 34.6291 26.55 36.1755 26.55H40.613C42.1594 26.55 43.413 25.2964 43.413 23.75V9.12501C43.413 7.57861 42.1594 6.32501 40.613 6.32501H36.1755ZM23.488 15.825C22.2177 15.825 21.188 16.8548 21.188 18.125V23.75C21.188 25.2964 22.4416 26.55 23.988 26.55H28.4255C29.9719 26.55 31.2255 25.2964 31.2255 23.75V18.125C31.2255 16.8548 30.1957 15.825 28.9255 15.825H23.488Z" fill="#B9C1C9"/>
<path d="M21.8159 33.7236V40.8564H20.4517V37.3545H18.8511V36.248H20.4517V33.7236H21.8159ZM22.0522 42.2207V43.3164H15.3276V40.2334H16.7026V42.2207H22.0522ZM17.272 35.6357C17.272 36.7637 17.9595 37.9775 19.5171 38.4824L18.8403 39.5674C17.7554 39.2183 17.0142 38.5039 16.5845 37.6123C16.1548 38.6006 15.376 39.3848 14.2212 39.7715L13.5229 38.6543C15.1343 38.1494 15.8647 36.8711 15.8755 35.625V35.4746H13.9097V34.3789H19.2163V35.4746H17.272V35.6357ZM26.1343 36.6885C26.1343 38.1709 26.6714 39.6533 28.0571 40.4053L27.3052 41.4043C26.4243 40.9531 25.8389 40.1582 25.5005 39.2021C25.1567 40.2441 24.5713 41.125 23.6851 41.6406L22.9009 40.6094C24.3081 39.793 24.8345 38.2031 24.8452 36.6885V36.4629H23.2661V35.3672H24.8452V34.0459H26.1235V35.3672H27.6704V36.4629H26.1343V36.6885ZM31.5376 33.7129V43.4883H30.2378V33.7129H31.5376ZM29.5396 33.874V43.0371H28.2505V38.5361H27.1011V37.4189H28.2505V33.874H29.5396ZM36.7583 34.7227V37.2686H37.7358V33.8525H39.0249V43.0371H37.7358V38.3643H36.7583V41.0283H32.8696V34.7227H36.7583ZM34.1479 35.8076V39.9541H35.48V35.8076H34.1479ZM41.0659 33.7129V43.4883H39.7554V33.7129H41.0659ZM50.0249 36.7959V37.8916H43.1821V34.1533H44.5464V36.7959H50.0249ZM51.0132 38.998V40.0938H48.9722V43.4883H47.5864V40.0938H45.5347V43.4883H44.1597V40.0938H42.0972V38.998H51.0132Z" fill="#808892"/>
</svg>
