<svg width="64" height="47" viewBox="0 0 64 47" fill="none" xmlns="http://www.w3.org/2000/svg">
<path fill-rule="evenodd" clip-rule="evenodd" d="M23.1557 3.5H41.0445C42.4501 3.5 43.6001 4.65 43.6001 6.05556V23.9444C43.6001 25.35 42.4501 26.5 41.0445 26.5H23.1557C21.7501 26.5 20.6001 25.35 20.6001 23.9444V6.05556C20.6001 4.65 21.7501 3.5 23.1557 3.5ZM26.9887 21.3898C27.6944 21.3898 28.2665 20.8177 28.2665 20.112V13.7231C28.2665 13.0174 27.6944 12.4453 26.9887 12.4453C26.283 12.4453 25.7109 13.0174 25.7109 13.7231V20.112C25.7109 20.8177 26.283 21.3898 26.9887 21.3898ZM33.3783 20.1104C33.3783 20.816 32.8062 21.3881 32.1005 21.3881C31.3948 21.3881 30.8228 20.816 30.8228 20.1104V9.88813C30.8228 9.18243 31.3948 8.61035 32.1005 8.61035C32.8062 8.61035 33.3783 9.18243 33.3783 9.88813V20.1104ZM37.2112 21.3895C37.9169 21.3895 38.489 20.8174 38.489 20.1117V17.5562C38.489 16.8505 37.9169 16.2784 37.2112 16.2784C36.5055 16.2784 35.9334 16.8505 35.9334 17.5562V20.1117C35.9334 20.8174 36.5055 21.3895 37.2112 21.3895Z" fill="#B9C1C9"/>
<path d="M30.7681 34.1533V34.9375C30.7681 35.7002 30.7681 36.5488 30.5425 37.666H31.8315V38.7725H22.8833V37.666H29.1567C29.3716 36.6885 29.3984 35.9312 29.4038 35.249H23.979V34.1533H30.7681ZM30.7358 39.8037V43.3809H23.9468V39.8037H30.7358ZM25.2896 40.8779V42.2852H29.3716V40.8779H25.2896ZM41.3062 38.0957V39.2021H39.3296V40.3838C39.915 40.6846 40.2373 41.1304 40.2427 41.7051C40.2319 42.8545 38.9536 43.499 36.8374 43.499C34.689 43.499 33.4106 42.8545 33.4106 41.7051C33.4106 41.1089 33.7544 40.6523 34.3882 40.3408V39.2021H32.3901V38.0957H41.3062ZM36.8374 39.9219C37.2402 39.9219 37.6162 39.9434 37.9546 39.9863V39.2021H35.7524V39.9863C36.0854 39.9434 36.4453 39.9219 36.8374 39.9219ZM36.8374 40.9531C35.4839 40.9639 34.7964 41.2002 34.8071 41.7051C34.7964 42.2207 35.4839 42.457 36.8374 42.457C38.1587 42.457 38.8569 42.2207 38.8677 41.7051C38.8569 41.2002 38.1587 40.9639 36.8374 40.9531ZM36.8481 33.8633C39.0073 33.8633 40.3931 34.583 40.4038 35.7646C40.3931 36.9248 39.0073 37.623 36.8481 37.623C34.6675 37.623 33.2817 36.9248 33.2817 35.7646C33.2817 34.583 34.6675 33.8633 36.8481 33.8633ZM36.8481 34.9268C35.4839 34.9268 34.6997 35.2061 34.7104 35.7646C34.6997 36.3018 35.4839 36.5811 36.8481 36.5811C38.2017 36.5811 38.9858 36.3018 38.9858 35.7646C38.9858 35.2061 38.2017 34.9268 36.8481 34.9268Z" fill="#808892"/>
</svg>
