<svg width="64" height="47" viewBox="0 0 64 47" fill="none" xmlns="http://www.w3.org/2000/svg">
<path fill-rule="evenodd" clip-rule="evenodd" d="M31.2126 3.68011C31.4933 3.43996 31.9071 3.43996 32.1878 3.68011L42.1878 12.2357C42.3543 12.3782 42.4502 12.5864 42.4502 12.8056V23.8056C42.4502 25.58 40.9734 27 39.2002 27H24.2002C22.427 27 20.9502 25.58 20.9502 23.8056V12.8056C20.9502 12.5864 21.0461 12.3782 21.2126 12.2357L31.2126 3.68011ZM28.0569 18.1732C27.4622 17.5964 26.5126 17.6111 25.9358 18.2058C25.3591 18.8005 25.3737 19.7501 25.9685 20.3269C29.1284 23.3911 34.272 23.3911 37.4319 20.3269C38.0266 19.7501 38.0413 18.8005 37.4645 18.2058C36.8878 17.6111 35.9382 17.5964 35.3435 18.1732C33.3472 20.109 30.0532 20.109 28.0569 18.1732Z" fill="#B9C1C9"/>
<path d="M35.0894 40.5127V43.3809H28.2681V40.5127H35.0894ZM29.6216 41.5332V42.3604H33.7466V41.5332H29.6216ZM35.6909 34.4111V35.4424H27.6665V34.4111H31.0073V33.627H32.3823V34.4111H35.6909ZM31.6948 35.6895C33.811 35.7002 34.9819 36.1621 34.9819 37.0859C34.9819 37.9023 34.0635 38.3696 32.3823 38.4609V38.9443H36.1528V40.0186H27.2368V38.9443H31.0073V38.4609C29.3315 38.3696 28.397 37.9023 28.4077 37.0859C28.397 36.1621 29.5894 35.7002 31.6948 35.6895ZM31.6948 36.6133C30.4595 36.6133 29.8687 36.7422 29.8687 37.0859C29.8687 37.4189 30.4595 37.5586 31.6948 37.5586C32.9409 37.5586 33.5103 37.4189 33.5103 37.0859C33.5103 36.7422 32.9409 36.6133 31.6948 36.6133Z" fill="#808892"/>
</svg>
