<svg  viewBox="0 0 28 29" fill="none" xmlns="http://www.w3.org/2000/svg">
<path fill-rule="evenodd" clip-rule="evenodd" d="M5.93881 1.3576C5.93881 0.607818 6.54663 0 7.2964 0C8.04618 0 8.654 0.607816 8.654 1.3576V2.54611H16.8008V1.3576C16.8008 0.607818 17.4086 0 18.1584 0C18.9082 0 19.516 0.607816 19.516 1.3576V2.54611H22.0608C23.9353 2.54611 25.4548 4.06564 25.4548 5.94008V23.7585C25.4548 25.6329 23.9353 27.1524 22.0608 27.1524H3.39397C1.51953 27.1524 0 25.6329 0 23.7585V5.94008C0 4.06564 1.51953 2.54611 3.39398 2.54611H5.93881V1.3576Z" fill="#3A3F49"/>
<path d="M0 9.33289H25.4548V23.7573C25.4548 25.6317 23.9353 27.1513 22.0608 27.1513H3.39398C1.51954 27.1513 0 25.6317 0 23.7573V9.33289Z" fill="#E1E6EC"/>
<path d="M27.9999 21.2129C27.9999 25.4304 24.581 28.8493 20.3635 28.8493C16.146 28.8493 12.7271 25.4304 12.7271 21.2129C12.7271 16.9954 16.146 13.5764 20.3635 13.5764C24.581 13.5764 27.9999 16.9954 27.9999 21.2129Z" fill="#4D4D4D"/>
<path fill-rule="evenodd" clip-rule="evenodd" d="M17.3171 18.717C17.1818 18.3358 16.7589 18.135 16.3724 18.2684C15.9859 18.4018 15.7823 18.8189 15.9175 19.2L16.5852 21.0812H16.0692C15.7416 21.0812 15.4761 21.3431 15.4761 21.6661C15.4761 21.9892 15.7416 22.251 16.0692 22.251H17.0004L17.8396 24.6158C17.9437 24.909 18.2244 25.1054 18.5394 25.1054C18.8545 25.1054 19.1351 24.909 19.2392 24.6158L20.4615 21.1717L21.6838 24.6158C21.7879 24.909 22.0686 25.1054 22.3836 25.1054C22.6987 25.1054 22.9793 24.909 23.0834 24.6158L23.9226 22.251H24.8563C25.1839 22.251 25.4495 21.9892 25.4495 21.6661C25.4495 21.3431 25.1839 21.0812 24.8563 21.0812H24.3378L25.0055 19.2C25.1407 18.8189 24.9371 18.4018 24.5506 18.2684C24.1642 18.135 23.7412 18.3358 23.6059 18.717L22.3836 22.1611L21.1613 18.717C21.0572 18.4237 20.7766 18.2274 20.4615 18.2274C20.1465 18.2274 19.8658 18.4237 19.7617 18.717L18.5394 22.1611L17.3171 18.717Z" fill="#2A5CE0"/>
</svg>
