<svg viewBox="0 0 36 36" fill="none" xmlns="http://www.w3.org/2000/svg">
<circle cx="18" cy="18" r="18" fill="#D9D9D9"/>
<g clip-path="url(#clip0_1868_2160)">
<path d="M18.515 23.5775C18.3601 23.5825 18.2053 23.5875 18.0504 23.5775C17.4009 23.5473 16.8663 23.0191 16.8313 22.3653C16.7264 20.3885 17.3509 18.6632 19.0046 17.28C19.6192 16.7669 20.3136 16.3545 20.9332 15.8414C22.372 14.6493 22.382 12.8587 20.9232 11.7521C18.6199 10.0017 15.4424 11.234 14.9578 13.3516C14.9378 13.4371 14.9128 13.5226 14.8878 13.6081C14.7379 14.1162 14.2833 14.4884 13.7587 14.5236C13.5988 14.5336 13.4439 14.5387 13.279 14.5336C12.4897 14.5135 11.8651 13.7791 12.03 13.0045C12.03 13.0045 12.03 12.9945 12.03 12.9894C12.1599 12.406 12.3598 11.8225 12.6345 11.2944C14.8928 6.94346 21.6976 7.01388 24.0807 10.8467C25.5946 13.2862 25.2298 16.0124 23.0615 17.9188C22.5619 18.3614 22.0173 18.7588 21.4578 19.1159C20.3536 19.8201 19.779 20.8009 19.7691 22.1238C19.7691 22.2144 19.7641 22.2999 19.7541 22.3904C19.6991 23.0393 19.1595 23.5423 18.515 23.5775Z" fill="black"/>
<path d="M19.759 26.6613C19.7939 27.0335 19.7889 27.4057 19.759 27.788C19.704 28.4217 19.1994 28.9398 18.5649 28.9851C18.45 28.9952 18.3351 29.0002 18.2201 29.0002C18.1802 29.0002 18.1402 29.0002 18.0952 29.0002C17.4258 28.9851 16.8662 28.4569 16.8162 27.788C16.7912 27.4258 16.7962 27.0687 16.8162 26.7065C16.8562 26.0526 17.3758 25.5094 18.0253 25.4792C18.1952 25.4692 18.365 25.4692 18.5299 25.4792C19.1694 25.5094 19.694 26.0225 19.754 26.6663L19.759 26.6613Z" fill="black"/>
</g>
<defs>
<clipPath id="clip0_1868_2160">
<rect width="13" height="21" fill="white" transform="translate(12 8)"/>
</clipPath>
</defs>
</svg>
