<svg width="40" height="40" viewBox="0 0 40 40" fill="none" xmlns="http://www.w3.org/2000/svg">
<g clip-path="url(#clip0_884_4902)">
<g filter="url(#filter0_d_884_4902)">
<path d="M5 13.0368C5 11.222 6.0552 9.56212 7.72755 8.74629L17.7726 3.84599C19.1738 3.16242 20.8262 3.16242 22.2274 3.84599L32.2724 8.74629C33.9448 9.56212 35 11.222 35 13.0368V19.5386C35 27.9534 28.7816 35.1596 20.2376 36.6461C20.0804 36.6735 19.9196 36.6735 19.7624 36.6461C11.2184 35.1596 5 27.9534 5 19.5386V13.0368Z" />
<path d="M14.8649 24.5067C15.1765 24.7501 15.5327 24.9671 15.9389 25.163C16.3451 25.3588 16.7514 25.5229 17.1688 25.6605C17.5861 25.7928 17.9979 25.8986 18.4097 25.9727C18.8215 26.0468 19.2054 26.0839 19.556 26.0839C20.4186 26.0839 21.0975 25.9145 21.5872 25.5705C22.0769 25.2265 22.3218 24.7131 22.3218 24.025C22.3218 23.5011 22.1882 23.0565 21.9266 22.6913C21.6651 22.3261 21.181 21.9768 20.4742 21.6433C20.0624 21.4422 19.6729 21.257 19.3056 21.0982C18.9384 20.9341 18.5822 20.77 18.2427 20.5954C17.9033 20.4207 17.5749 20.2355 17.2577 20.0397C16.9406 19.8438 16.6234 19.6268 16.3118 19.3834C15.7608 18.9123 15.3046 18.383 14.954 17.7956C14.5978 17.2081 14.4253 16.4936 14.4253 15.6467C14.4253 15.0698 14.5477 14.53 14.7981 14.0431C15.043 13.5508 15.4047 13.1327 15.8721 12.7781C16.3396 12.4288 16.9072 12.1536 17.5806 11.9577C18.2539 11.7619 19.0163 11.6666 19.8621 11.6666C21.7041 11.6666 23.3401 11.963 24.7703 12.5558V15.0381C24.7703 15.2286 24.698 15.345 24.5589 15.3927C24.4197 15.4403 24.2695 15.4033 24.1137 15.2815C22.9506 14.35 21.6763 13.8896 20.2906 13.8896C19.5282 13.8896 18.9439 14.043 18.5377 14.3553C18.1315 14.6676 17.9311 15.0963 17.9311 15.6467C17.9311 16.0384 18.0035 16.3718 18.1426 16.6576C18.2817 16.9434 18.4988 17.1922 18.7826 17.4039C19.3224 17.822 19.8955 18.1872 20.5132 18.4942C21.1309 18.8065 21.7319 19.0923 22.3274 19.3622C22.8783 19.6057 23.3735 19.865 23.802 20.1508C24.2361 20.4313 24.6033 20.7542 24.9094 21.1194C25.2155 21.4846 25.4437 21.8974 25.5995 22.3631C25.7553 22.8289 25.8332 23.3687 25.8332 23.988C25.8332 24.7554 25.6718 25.4117 25.3546 25.9569C25.0374 26.502 24.5922 26.9519 24.0246 27.3118C23.457 27.6664 22.7948 27.9257 22.038 28.0898C21.2812 28.2539 20.4687 28.3333 19.6062 28.3333C18.9662 28.3333 18.304 28.2645 17.6195 28.1322C16.935 27.9999 16.3229 27.8252 15.7831 27.6188C15.2433 27.4124 14.8204 27.1795 14.5088 26.9201C14.1971 26.6661 14.0969 26.4067 14.2138 26.1527L14.8705 24.5173L14.8649 24.5067Z" fill="#366DFF"/>
</g>
</g>
<defs>
<filter id="filter0_d_884_4902" x="1" y="2.33331" width="38" height="41.3333" filterUnits="userSpaceOnUse" color-interpolation-filters="sRGB">
<feFlood flood-opacity="0" result="BackgroundImageFix"/>
<feColorMatrix in="SourceAlpha" type="matrix" values="0 0 0 0 0 0 0 0 0 0 0 0 0 0 0 0 0 0 127 0" result="hardAlpha"/>
<feOffset dy="3"/>
<feGaussianBlur stdDeviation="2"/>
<feComposite in2="hardAlpha" operator="out"/>
<feColorMatrix type="matrix" values="0 0 0 0 0 0 0 0 0 0 0 0 0 0 0 0 0 0 0.06 0"/>
<feBlend mode="normal" in2="BackgroundImageFix" result="effect1_dropShadow_884_4902"/>
<feBlend mode="normal" in="SourceGraphic" in2="effect1_dropShadow_884_4902" result="shape"/>
</filter>
<clipPath id="clip0_884_4902">
<rect width="40" height="40" fill="white"/>
</clipPath>
</defs>
</svg>
