<svg width="30" height="30" viewBox="0 0 30 30" fill="none" xmlns="http://www.w3.org/2000/svg">
<path fill-rule="evenodd" clip-rule="evenodd" d="M4.75 13.125C4.75 8.49962 8.49962 4.75 13.125 4.75C17.7504 4.75 21.5 8.49962 21.5 13.125C21.5 17.7504 17.7504 21.5 13.125 21.5C8.49962 21.5 4.75 17.7504 4.75 13.125ZM13.125 2.75C7.39505 2.75 2.75 7.39505 2.75 13.125C2.75 18.855 7.39505 23.5 13.125 23.5C15.6299 23.5 17.9274 22.6123 19.7202 21.1344L25.5429 26.9571C25.9334 27.3476 26.5666 27.3476 26.9571 26.9571C27.3476 26.5666 27.3476 25.9334 26.9571 25.5429L21.1344 19.7202C22.6123 17.9274 23.5 15.6299 23.5 13.125C23.5 7.39505 18.855 2.75 13.125 2.75Z"/>
</svg>
