<svg viewBox="0 0 42 41" fill="none" xmlns="http://www.w3.org/2000/svg">
<path d="M21.4734 0C10.15 0 0.973389 9.17666 0.973389 20.5C0.973389 31.8233 10.15 41 21.4734 41C32.7967 41 41.9734 31.8233 41.9734 20.5C41.9734 9.17666 32.7929 0 21.4734 0ZM21.9035 37.2433C19.4523 37.5897 15.4596 36.9655 12.7535 35.2565C10.386 33.7607 8.97014 31.888 8.05666 29.9888C7.12415 28.0476 6.67883 25.6916 7.67604 25.8096C8.1442 25.8629 8.54385 26.7497 9.44591 27.8992C10.0625 28.6871 10.6296 29.3493 11.0559 29.4407C11.2462 29.4825 11.4061 29.395 11.5431 29.1362C11.7981 28.649 12.1407 27.7241 12.7573 26.9743C13.2559 26.3996 13.8534 26.1331 14.1998 27.5338C14.3673 28.2341 14.5005 28.9497 14.5804 29.5777C14.6908 30.4645 14.7479 30.9936 15.0562 31.1458C15.3493 31.2905 15.8517 31.104 16.6586 30.8033C17.2371 30.5863 17.9831 30.3123 18.9233 30.0421C19.7911 29.7947 20.3392 29.9241 19.7835 31.2676C19.5208 31.9033 19.2544 32.4361 18.3181 33.7873C18.1544 34.0233 18.1849 34.2593 18.3904 34.4648C18.7025 34.7769 19.4143 35.1537 20.2021 35.4963C20.8263 35.7665 21.5723 36.0025 22.0671 36.1433C22.8398 36.3641 22.6876 37.1444 21.9111 37.2509L21.9035 37.2433ZM32.4237 32.8358C31.6587 34.0766 30.0601 35.4202 28.119 36.3146C27.8259 36.4478 27.51 36.406 27.43 36.1662C27.3615 35.9568 27.5252 35.7208 27.7193 35.4925C30.2466 32.2116 28.3702 29.2085 24.2899 26.8753C21.2755 25.1511 19.3572 24.1615 17.1344 22.8522C10.6182 19.0156 9.35837 15.67 9.10336 13.6946C8.46011 8.69708 12.5936 4.95563 16.8413 4.05356C16.9707 4.02692 17.3094 3.97364 17.4198 4.25529C17.5302 4.53695 17.279 4.74248 17.1306 4.83383C15.2313 5.88052 13.3625 8.09952 13.568 10.5659C13.6822 11.9437 14.2721 13.9268 18.0022 16.5835C20.2516 18.1897 23.0111 19.5066 28.5681 22.837C34.441 26.3577 33.7711 30.651 32.4275 32.8396L32.4237 32.8358ZM33.341 14.0866C32.0012 15.7271 30.6577 15.1181 29.6262 12.8077C28.9829 11.3652 28.1342 11.0188 27.5366 11.3957C26.8858 11.8067 27.1446 12.7963 27.8716 13.9344C28.3473 14.6804 28.1342 15.5558 27.6394 16.0734C27.1179 16.6177 26.2654 16.8347 25.3366 16.6291C23.6848 16.2637 22.0595 14.0524 23.2471 9.21853C23.7266 7.26597 22.7903 6.43242 22.1966 5.6826C21.8997 5.30579 21.8616 5.08123 21.972 4.92898C22.09 4.76532 22.364 4.7539 22.8512 4.85667C23.4868 4.98988 24.4308 5.31721 25.1996 5.4352C25.7096 5.51513 26.2882 5.53797 26.8934 5.51513C28.5414 5.45043 29.7556 5.70544 31.0002 6.32204C33.1088 7.36493 33.3258 9.16524 32.1535 9.02061C31.7462 8.97113 31.2248 8.66283 30.7909 8.45349C30.5016 8.31266 30.2504 8.26699 30.0677 8.4002C29.8964 8.52581 29.8203 8.78843 29.9421 9.04725C30.2047 9.59915 31.0916 9.88461 32.2905 10.2157C34.3915 10.7943 34.4372 12.743 33.3372 14.0904L33.341 14.0866Z" fill="#0046FF"/>
<path d="M21.9056 37.2423C19.4545 37.5887 15.4618 36.9644 12.7556 35.2555C10.3882 33.7597 8.97228 31.887 8.0588 29.9878C7.12629 28.0466 6.68097 25.6906 7.67819 25.8086C8.14635 25.8619 8.54599 26.7487 9.44805 27.8982C10.0647 28.686 10.6318 29.3483 11.0581 29.4397C11.2484 29.4815 11.4082 29.394 11.5453 29.1352C11.8003 28.648 12.1428 27.7231 12.7594 26.9733C13.258 26.3985 13.8556 26.1321 14.202 27.5328C14.3694 28.2331 14.5026 28.9487 14.5826 29.5767C14.6929 30.4635 14.75 30.9926 15.0583 31.1448C15.3514 31.2895 15.8538 31.103 16.6607 30.8023C17.2393 30.5853 17.9853 30.3113 18.9254 30.041C19.7932 29.7936 20.3413 29.923 19.7856 31.2666C19.523 31.9023 19.2565 32.4351 18.3202 33.7863C18.1566 34.0223 18.187 34.2583 18.3925 34.4638C18.7046 34.7759 19.4164 35.1527 20.2043 35.4953C20.8285 35.7655 21.5745 36.0015 22.0693 36.1423C22.8419 36.3631 22.6897 37.1433 21.9132 37.2499L21.9056 37.2423ZM32.4259 32.8348C31.6608 34.0756 30.0622 35.4191 28.1211 36.3136C27.828 36.4468 27.5121 36.4049 27.4322 36.1652C27.3637 35.9558 27.5273 35.7198 27.7214 35.4915C30.2487 32.2106 28.3723 29.2075 24.2921 26.8743C21.2776 25.1501 19.3593 24.1605 17.1365 22.8512C10.6204 19.0146 9.36051 15.669 9.1055 13.6936C8.46226 8.69607 12.5958 4.95461 16.8434 4.05254C16.9728 4.0259 17.3116 3.97262 17.422 4.25427C17.5323 4.53593 17.2811 4.74146 17.1327 4.83281C15.2334 5.8795 13.3646 8.0985 13.5701 10.5649C13.6843 11.9427 14.2743 13.9257 18.0043 16.5824C20.2538 18.1886 23.0132 19.5056 28.5702 22.836C34.4431 26.3567 33.7732 30.65 32.4297 32.8386L32.4259 32.8348ZM33.3432 14.0856C32.0034 15.7261 30.6598 15.1171 29.6283 12.8067C28.9851 11.3642 28.1363 11.0178 27.5388 11.3946C26.8879 11.8057 27.1467 12.7953 27.8737 13.9333C28.3495 14.6794 28.1363 15.5548 27.6415 16.0724C27.1201 16.6167 26.2675 16.8336 25.3388 16.6281C23.6869 16.2627 22.0617 14.0513 23.2492 9.21751C23.7288 7.26495 22.7925 6.4314 22.1987 5.68158C21.9018 5.30477 21.8638 5.08021 21.9741 4.92796C22.0921 4.7643 22.3662 4.75288 22.8534 4.85565C23.489 4.98886 24.4329 5.31619 25.2018 5.43418C25.7118 5.51411 26.2903 5.53695 26.8955 5.51411C28.5436 5.44941 29.7577 5.70442 31.0024 6.32102C33.111 7.36391 33.3279 9.16422 32.1556 9.01959C31.7484 8.97011 31.2269 8.66181 30.7968 8.45247C30.5076 8.31164 30.2564 8.26597 30.0737 8.39918C29.9024 8.52479 29.8263 8.78741 29.9481 9.04623C30.2107 9.59813 31.0975 9.88359 32.2965 10.2147C34.3975 10.7933 34.4431 12.742 33.3432 14.0894V14.0856Z" fill="white"/>
</svg>
