<svg viewBox="0 0 49 47" fill="none" xmlns="http://www.w3.org/2000/svg">
<rect x="0.181152" y="10.6117" width="24.8594" height="37.1089" rx="6" transform="rotate(-14.5433 0.181152 10.6117)" fill="#C6C6C6"/>
<path d="M12.7676 7.39525C12.7676 5.35311 14.4231 3.69763 16.4652 3.69763H36.8021C38.8442 3.69763 40.4997 5.35311 40.4997 7.39525V36.9762C40.4997 39.0183 38.8442 40.6738 36.8021 40.6738H16.4652C14.4231 40.6738 12.7676 39.0183 12.7676 36.9762V7.39525Z" fill="#0471E9"/>
<rect x="29.4067" y="9.24405" width="5.54642" height="7.39523" fill="white"/>
<path d="M12.7676 7.39525C12.7676 5.35311 14.4231 3.69763 16.4652 3.69763H36.8021C38.8442 3.69763 40.4997 5.35311 40.4997 7.39525V36.9762C40.4997 39.0183 38.8442 40.6738 36.8021 40.6738H16.4652C14.4231 40.6738 12.7676 39.0183 12.7676 36.9762V7.39525Z" fill="#0471E9"/>
<path d="M29.4067 9.24405H34.9532V16.6393H29.4067V9.24405Z" fill="white"/>
</svg>
